<?xml version="1.0" standalone="no"?>
<!DOCTYPE svg PUBLIC "-//W3C//DTD SVG 20010904//EN"
 "http://www.w3.org/TR/2001/REC-SVG-20010904/DTD/svg10.dtd">
<svg version="1.0" xmlns="http://www.w3.org/2000/svg"
 width="500.000000pt" height="500.000000pt" viewBox="0 0 500.000000 500.000000"
 preserveAspectRatio="xMidYMid meet">

<g transform="translate(0.000000,500.000000) scale(0.100000,-0.100000)"
fill="#000000" stroke="none">
<path d="M0 2500 l0 -2500 2500 0 2500 0 0 2500 0 2500 -2500 0 -2500 0 0
-2500z m2830 2285 c512 -79 945 -298 1305 -659 358 -360 575 -795 652 -1306
24 -160 24 -482 -1 -645 -60 -396 -209 -754 -449 -1074 -88 -117 -303 -335
-412 -418 -353 -266 -702 -412 -1140 -475 -134 -19 -464 -16 -605 6 -538 83
-1004 324 -1360 703 -329 350 -531 771 -606 1263 -25 160 -25 480 0 645 134
887 741 1604 1590 1875 153 49 291 76 526 104 74 9 400 -4 500 -19z"/>
<path d="M3095 3949 c-101 -11 -239 -50 -331 -94 -70 -34 -215 -134 -243 -168
-20 -25 -28 -22 -85 27 -107 91 -250 167 -392 208 -69 20 -100 23 -249 22
-155 0 -178 -3 -258 -27 -166 -51 -284 -124 -407 -253 -159 -168 -238 -339
-256 -556 -19 -237 76 -519 273 -807 74 -108 126 -175 285 -366 l28 -32 -39
-75 c-46 -90 -59 -164 -43 -256 46 -274 339 -425 587 -303 75 37 157 120 191
195 94 206 8 450 -195 549 -61 29 -74 32 -166 31 -85 0 -109 -4 -161 -26 l-62
-26 -45 47 c-114 118 -277 340 -365 496 -171 302 -197 586 -76 833 96 196 291
362 490 418 78 22 283 30 371 14 154 -26 302 -106 449 -239 l99 -91 65 64
c204 197 390 279 640 278 132 0 230 -21 331 -72 281 -141 449 -406 449 -707
-1 -216 -108 -469 -323 -761 l-61 -82 -48 6 c-80 11 -148 -24 -193 -100 -8
-13 -35 -19 -121 -26 -374 -33 -588 -207 -619 -505 -4 -38 -14 -79 -21 -90 -8
-11 -14 -37 -14 -58 0 -88 108 -131 171 -68 36 36 40 95 9 134 -38 48 -17 168
47 265 75 112 236 184 449 198 l91 7 18 -31 c21 -35 58 -65 94 -77 23 -7 24
-8 18 -109 -17 -292 -150 -490 -347 -513 -38 -4 -58 -1 -94 17 -40 19 -50 20
-82 10 -76 -26 -95 -118 -34 -172 36 -33 86 -37 121 -10 13 10 58 24 99 31 82
13 195 61 248 106 51 43 122 149 153 230 38 98 58 195 66 321 5 94 8 105 29
119 46 30 78 120 64 182 -8 35 -5 41 63 135 320 436 411 759 312 1102 -46 159
-121 281 -246 402 -115 110 -230 179 -369 222 -102 31 -247 44 -365 31z
m-1189 -2049 c180 -77 230 -324 93 -461 -65 -65 -111 -84 -209 -84 -74 0 -91
3 -130 27 -123 73 -182 207 -146 331 50 170 230 257 392 187z"/>
<path d="M1742 1851 c-172 -43 -223 -260 -88 -378 157 -139 402 20 347 225
-29 104 -154 179 -259 153z m112 -146 c37 -35 39 -96 3 -132 -36 -35 -97 -34
-132 2 -81 80 45 208 129 130z"/>
</g>
</svg>
